<svg width="233" height="55" viewBox="0 0 233 55" fill="none" xmlns="http://www.w3.org/2000/svg">
<path d="M75.28 42.56C73.52 42.56 72.0267 42.24 70.8 41.6C69.5733 40.9333 68.6267 40.0667 67.96 39C67.32 37.9333 67 36.7467 67 35.44C67 32.1867 69.0533 29.6667 73.16 27.88C72.4667 26.9467 71.8133 25.96 71.2 24.92C70.6133 23.8533 70.32 22.6133 70.32 21.2C70.32 19.3333 70.9867 17.84 72.32 16.72C73.6533 15.5733 75.4 15 77.56 15C79.6667 15 81.2933 15.48 82.44 16.44C83.6133 17.3733 84.2 18.6133 84.2 20.16C84.2 21.52 83.68 22.7067 82.64 23.72C81.6 24.7067 80.0933 25.6267 78.12 26.48C78.6 27.0133 79.1067 27.5867 79.64 28.2C80.1733 28.7867 80.7333 29.4133 81.32 30.08C82.0667 30.88 82.7733 31.64 83.44 32.36C84.1333 33.08 84.8267 33.8267 85.52 34.6C86.1333 33.6933 86.7067 32.6533 87.24 31.48C87.7733 30.28 88.2 29.0267 88.52 27.72C88.7333 26.7333 88.3467 26.0933 87.36 25.8L87.04 25.68V24.92H91.92V25.68L91.48 25.84C90.6267 26.1333 90.0933 26.7067 89.88 27.56C89.4533 29.0267 88.9467 30.4267 88.36 31.76C87.7733 33.0667 87.0933 34.2667 86.32 35.36L90.08 39.4C90.4 39.7467 90.7333 40.04 91.08 40.28C91.4267 40.4933 91.8133 40.6933 92.24 40.88L93.04 41.2V42L85.36 42.04L82.76 39.2C81.9867 40.0267 81.0267 40.8 79.88 41.52C78.7333 42.2133 77.2 42.56 75.28 42.56ZM77.48 25.8C78.5467 24.8667 79.3333 23.9333 79.84 23C80.3467 22.0667 80.6 21.0267 80.6 19.88C80.6 18.84 80.32 18 79.76 17.36C79.2267 16.72 78.4933 16.4 77.56 16.4C76.68 16.4 75.9333 16.72 75.32 17.36C74.7333 18 74.44 18.8267 74.44 19.84C74.44 20.4533 74.5467 21.0933 74.76 21.76C75 22.4267 75.4267 23.1867 76.04 24.04C76.2 24.2533 76.4 24.5067 76.64 24.8C76.88 25.0667 77.16 25.4 77.48 25.8ZM77.44 39.84C78.3733 39.84 79.2267 39.7067 80 39.44C80.7733 39.1467 81.44 38.7733 82 38.32C80.6667 36.8267 79.36 35.3333 78.08 33.84C77.3333 32.9067 76.6133 32.0267 75.92 31.2C75.2267 30.3733 74.5467 29.5467 73.88 28.72C73.0533 29.3867 72.4667 30.16 72.12 31.04C71.8 31.92 71.64 32.8267 71.64 33.76C71.64 35.4933 72.1733 36.9467 73.24 38.12C74.3333 39.2667 75.7333 39.84 77.44 39.84ZM118.178 42.68C115.591 42.68 113.258 42.1467 111.178 41.08C109.098 40.0133 107.445 38.44 106.218 36.36C105.018 34.28 104.418 31.7467 104.418 28.76C104.418 26.52 104.778 24.5333 105.498 22.8C106.245 21.0667 107.258 19.6133 108.538 18.44C109.845 17.24 111.338 16.3467 113.018 15.76C114.698 15.1467 116.485 14.84 118.378 14.84C119.845 14.84 121.218 15.0133 122.498 15.36C123.778 15.68 125.005 16.16 126.178 16.8L126.338 22.04H125.258L123.578 18.88C123.311 18.3467 123.018 17.8667 122.698 17.44C122.405 17.0133 122.018 16.7067 121.538 16.52C120.871 16.2 120.085 16.04 119.178 16.04C117.605 16.04 116.165 16.44 114.858 17.24C113.578 18.04 112.551 19.3733 111.778 21.24C111.005 23.08 110.618 25.6 110.618 28.8C110.618 31.9733 110.978 34.4933 111.698 36.36C112.445 38.2267 113.445 39.56 114.698 40.36C115.951 41.1333 117.365 41.52 118.938 41.52C119.658 41.52 120.245 41.4667 120.698 41.36C121.151 41.2533 121.605 41.1067 122.058 40.92C122.591 40.7067 123.005 40.4 123.298 40C123.591 39.5733 123.845 39.0933 124.058 38.56L125.578 34.92H126.658L126.498 40.68C125.351 41.32 124.085 41.8133 122.698 42.16C121.311 42.5067 119.805 42.68 118.178 42.68ZM138.52 42.56C136.546 42.56 134.813 42.1467 133.32 41.32C131.853 40.4933 130.706 39.32 129.88 37.8C129.08 36.28 128.68 34.4667 128.68 32.36C128.68 30.2533 129.106 28.44 129.96 26.92C130.84 25.4 132.013 24.24 133.48 23.44C134.973 22.6133 136.653 22.2 138.52 22.2C140.386 22.2 142.053 22.6133 143.52 23.44C145.013 24.24 146.186 25.4 147.04 26.92C147.92 28.4133 148.36 30.2267 148.36 32.36C148.36 34.4667 147.946 36.2933 147.12 37.84C146.32 39.36 145.186 40.5333 143.72 41.36C142.253 42.16 140.52 42.56 138.52 42.56ZM138.52 41.44C139.48 41.44 140.253 41.1867 140.84 40.68C141.453 40.1467 141.893 39.2267 142.16 37.92C142.426 36.6133 142.56 34.7867 142.56 32.44C142.56 30.0667 142.426 28.2267 142.16 26.92C141.893 25.5867 141.453 24.6667 140.84 24.16C140.253 23.6267 139.48 23.36 138.52 23.36C137.56 23.36 136.786 23.6267 136.2 24.16C135.613 24.6667 135.173 25.5867 134.88 26.92C134.613 28.2267 134.48 30.0667 134.48 32.44C134.48 34.7867 134.613 36.6133 134.88 37.92C135.173 39.2267 135.613 40.1467 136.2 40.68C136.786 41.1867 137.56 41.44 138.52 41.44ZM150.084 42V41.24L150.684 41.08C151.564 40.7867 152.004 40.12 152.004 39.08C152.004 38.1733 152.004 37.2667 152.004 36.36C152.031 35.4267 152.044 34.5067 152.044 33.6V18.4C152.044 17.84 151.951 17.4267 151.764 17.16C151.577 16.8667 151.217 16.6533 150.684 16.52L150.084 16.36V15.6L157.084 13.92L157.604 14.28L157.444 19.92V39.08C157.471 39.6133 157.577 40.0533 157.764 40.4C157.977 40.72 158.337 40.9467 158.844 41.08L159.404 41.24V42H150.084ZM161.295 42V41.24L161.895 41.08C162.775 40.7867 163.215 40.12 163.215 39.08C163.215 38.1733 163.215 37.2667 163.215 36.36C163.242 35.4267 163.255 34.5067 163.255 33.6V18.4C163.255 17.84 163.162 17.4267 162.975 17.16C162.788 16.8667 162.428 16.6533 161.895 16.52L161.295 16.36V15.6L168.295 13.92L168.815 14.28L168.655 19.92V39.08C168.682 39.6133 168.788 40.0533 168.975 40.4C169.188 40.72 169.548 40.9467 170.055 41.08L170.615 41.24V42H161.295ZM182.426 22.2C184.106 22.2 185.546 22.5467 186.746 23.24C187.946 23.9333 188.866 24.8933 189.506 26.12C190.173 27.32 190.506 28.7067 190.506 30.28C190.506 30.6267 190.493 30.96 190.466 31.28C190.439 31.5733 190.386 31.8533 190.306 32.12H178.266C178.293 34.8667 178.799 36.84 179.786 38.04C180.799 39.24 182.266 39.84 184.186 39.84C185.519 39.84 186.599 39.6267 187.426 39.2C188.253 38.7467 189.013 38.12 189.706 37.32L190.346 37.92C189.546 39.3867 188.453 40.5333 187.066 41.36C185.706 42.16 184.079 42.56 182.186 42.56C180.293 42.56 178.626 42.16 177.186 41.36C175.746 40.56 174.613 39.4133 173.786 37.92C172.986 36.4 172.586 34.5867 172.586 32.48C172.586 30.2933 173.053 28.44 173.986 26.92C174.946 25.4 176.173 24.24 177.666 23.44C179.186 22.6133 180.773 22.2 182.426 22.2ZM182.226 23.36C181.453 23.36 180.773 23.5867 180.186 24.04C179.626 24.4667 179.173 25.24 178.826 26.36C178.506 27.4533 178.319 29 178.266 31H185.426C185.719 28.3067 185.613 26.36 185.106 25.16C184.599 23.96 183.639 23.36 182.226 23.36ZM201.183 35.16C199.423 35.16 197.916 34.8667 196.663 34.28V35.72C196.663 36.52 197.063 37 197.863 37.16L204.983 38.48C206.343 38.7467 207.543 39.08 208.583 39.48C209.623 39.8533 210.436 40.4 211.023 41.12C211.61 41.8133 211.903 42.76 211.903 43.96C211.903 45.24 211.476 46.4267 210.623 47.52C209.796 48.64 208.556 49.5333 206.903 50.2C205.276 50.8933 203.236 51.24 200.783 51.24C198.676 51.24 196.996 51.0133 195.743 50.56C194.516 50.1333 193.636 49.5733 193.103 48.88C192.57 48.1867 192.303 47.44 192.303 46.64C192.303 45.68 192.623 44.72 193.263 43.76C193.93 42.8 194.783 42 195.823 41.36C194.196 40.7467 193.383 39.7733 193.383 38.44C193.383 37.9333 193.503 37.4667 193.743 37.04C193.983 36.6133 194.276 36.1867 194.623 35.76L196.063 33.96C194.143 32.84 193.183 31.0933 193.183 28.72C193.183 26.7733 193.863 25.2 195.223 24C196.61 22.8 198.596 22.2 201.183 22.2C203.77 22.2 205.77 22.8 207.183 24C208.036 23.8667 208.836 23.6533 209.583 23.36C210.33 23.0667 211.023 22.6667 211.663 22.16L212.223 22.56V24.8H207.903C208.756 25.8667 209.183 27.1733 209.183 28.72C209.183 30.6133 208.49 32.16 207.103 33.36C205.743 34.56 203.77 35.16 201.183 35.16ZM201.103 34.08C202.223 34.08 203.036 33.6533 203.543 32.8C204.076 31.92 204.343 30.52 204.343 28.6C204.343 26.7067 204.09 25.3467 203.583 24.52C203.076 23.6933 202.29 23.28 201.223 23.28C200.156 23.28 199.356 23.7067 198.823 24.56C198.316 25.3867 198.063 26.76 198.063 28.68C198.063 30.6 198.303 31.9867 198.783 32.84C199.263 33.6667 200.036 34.08 201.103 34.08ZM195.423 45.48C195.423 46.9467 195.89 48.04 196.823 48.76C197.756 49.5067 199.236 49.88 201.263 49.88C203.503 49.88 205.156 49.5067 206.223 48.76C207.316 48.04 207.863 47.08 207.863 45.88C207.863 45.1333 207.583 44.5467 207.023 44.12C206.49 43.6933 205.583 43.36 204.303 43.12L197.143 41.72C197.036 41.6933 196.93 41.6667 196.823 41.64C196.423 42.1733 196.09 42.7867 195.823 43.48C195.556 44.1733 195.423 44.84 195.423 45.48ZM223.051 22.2C224.731 22.2 226.171 22.5467 227.371 23.24C228.571 23.9333 229.491 24.8933 230.131 26.12C230.798 27.32 231.131 28.7067 231.131 30.28C231.131 30.6267 231.118 30.96 231.091 31.28C231.064 31.5733 231.011 31.8533 230.931 32.12H218.891C218.918 34.8667 219.424 36.84 220.411 38.04C221.424 39.24 222.891 39.84 224.811 39.84C226.144 39.84 227.224 39.6267 228.051 39.2C228.878 38.7467 229.638 38.12 230.331 37.32L230.971 37.92C230.171 39.3867 229.078 40.5333 227.691 41.36C226.331 42.16 224.704 42.56 222.811 42.56C220.918 42.56 219.251 42.16 217.811 41.36C216.371 40.56 215.238 39.4133 214.411 37.92C213.611 36.4 213.211 34.5867 213.211 32.48C213.211 30.2933 213.678 28.44 214.611 26.92C215.571 25.4 216.798 24.24 218.291 23.44C219.811 22.6133 221.398 22.2 223.051 22.2ZM222.851 23.36C222.078 23.36 221.398 23.5867 220.811 24.04C220.251 24.4667 219.798 25.24 219.451 26.36C219.131 27.4533 218.944 29 218.891 31H226.051C226.344 28.3067 226.238 26.36 225.731 25.16C225.224 23.96 224.264 23.36 222.851 23.36Z" fill="#222A68"/>
<rect x="1.5" y="2.5" width="49.2667" height="49.2667" stroke="#222A68" stroke-width="3"/>
<path d="M19.24 42.68C17.96 42.68 16.9867 42.44 16.32 41.96C15.6533 41.48 15.32 40.8267 15.32 40C15.32 39.28 15.56 38.72 16.04 38.32C16.5467 37.92 17.1333 37.72 17.8 37.72C18.4933 37.72 19.0933 37.8667 19.6 38.16C20.1333 38.4533 20.64 38.9467 21.12 39.64L21.64 40.56C21.8267 40.7467 22.04 40.8267 22.28 40.8C22.52 40.7733 22.6933 40.6267 22.8 40.36C22.96 39.8267 23.0667 39.1067 23.12 38.2C23.2 37.2667 23.24 36.1467 23.24 34.84C23.24 33.24 23.2 31.16 23.12 28.6C23.0667 26.04 23 22.76 22.92 18.76C22.8933 18.2 22.7733 17.7467 22.56 17.4C22.3733 17.0533 22.04 16.8 21.56 16.64L20.68 16.4V15.56H30.88V16.4L30.04 16.64C29.5333 16.8 29.1867 17.04 29 17.36C28.84 17.68 28.76 18.1067 28.76 18.64V26.48C28.76 29.0667 28.6533 31.1867 28.44 32.84C28.2267 34.4933 27.8667 35.92 27.36 37.12C26.6933 38.9333 25.6133 40.32 24.12 41.28C22.6533 42.2133 21.0267 42.68 19.24 42.68Z" fill="#222A68"/>
<path d="M36.206 12.558L36.332 10.02C36.692 9.816 37.142 9.648 37.682 9.516C38.234 9.372 38.84 9.3 39.5 9.3C40.892 9.3 41.9 9.594 42.524 10.182C43.148 10.77 43.46 11.508 43.46 12.396C43.46 13.224 43.088 14.028 42.344 14.808C41.6 15.588 40.532 16.488 39.14 17.508C38.876 17.7 38.57 17.934 38.222 18.21C37.886 18.474 37.556 18.744 37.232 19.02H43.784V21H35.936V19.542C36.824 18.678 37.646 17.856 38.402 17.076C39.278 16.176 39.926 15.378 40.346 14.682C40.766 13.974 40.976 13.23 40.976 12.45C40.976 11.658 40.826 11.022 40.526 10.542C40.226 10.062 39.788 9.822 39.212 9.822C38.828 9.822 38.486 9.912 38.186 10.092C37.898 10.272 37.658 10.578 37.466 11.01L36.764 12.558H36.206Z" fill="#222A68"/>
</svg>
